<svg width="35" height="35" viewBox="0 0 35 35" fill="none" xmlns="http://www.w3.org/2000/svg">
<rect width="35" height="35" rx="17.5" fill="#7D00D1"/>
<path d="M19.1714 19.7536C18.6739 20.0853 18.0959 20.2606 17.5 20.2606C16.9041 20.2606 16.3262 20.0853 15.8286 19.7536L7.63316 14.2898C7.5877 14.2595 7.5434 14.2279 7.5 14.1954V23.1484C7.5 24.1748 8.33301 24.9895 9.34113 24.9895H25.6588C26.6853 24.9895 27.5 24.1565 27.5 23.1484V14.1953C27.4565 14.2279 27.4121 14.2596 27.3665 14.2899L19.1714 19.7536Z" fill="white"/>
<path d="M8.2832 13.3161L16.4786 18.7799C16.7889 18.9868 17.1444 19.0902 17.5 19.0902C17.8555 19.0902 18.2111 18.9867 18.5214 18.7799L26.7168 13.3161C27.2072 12.9893 27.5 12.4425 27.5 11.8522C27.5 10.8373 26.6743 10.0117 25.6595 10.0117H9.34051C8.32566 10.0118 7.5 10.8374 7.5 11.8532C7.5 12.4425 7.79281 12.9893 8.2832 13.3161Z" fill="white"/>
</svg>
