<svg width="36" height="36" viewBox="0 0 36 36" fill="none" xmlns="http://www.w3.org/2000/svg">
<path d="M35.2958 17.0184L26.7841 10.7393C26.0941 10.2302 25.1163 10.7248 25.1163 11.5814V14.7209H23.0233V3.13952C23.0233 1.40843 21.6149 0 19.8837 0H3.13952C1.41166 0 0 1.40815 0 3.13952C0 4.10295 0 25.947 0 27.2753C0 28.3274 0.522633 29.3039 1.39809 29.8875L9.7702 35.4689C11.8544 36.8584 14.6513 35.3584 14.6513 32.8567V31.535H19.8839C21.615 31.535 23.0234 30.1266 23.0234 28.3955V21.0001H25.1165V24.1396C25.1165 25.0024 26.0995 25.4869 26.7843 24.9818L35.296 18.7026C35.8624 18.2847 35.8623 17.4363 35.2958 17.0184ZM10.9312 33.7274L2.55909 28.146C2.26723 27.9514 2.09306 27.6259 2.09306 27.2752C2.09306 26.9785 2.09306 7.05755 2.09306 3.13945C2.09306 3.0105 2.1176 2.88752 2.16042 2.77341L11.8053 7.59586C12.1487 7.76756 12.5582 8.08453 12.5582 8.61912V32.8566H12.5582C12.5582 33.6933 11.6278 34.1919 10.9312 33.7274ZM20.9303 28.3955C20.9303 28.9725 20.4609 29.442 19.8838 29.442H14.6513V8.61919C14.6513 7.38612 13.9551 6.3308 12.7414 5.72386L5.47966 2.09306H19.8838C20.4609 2.09306 20.9303 2.56254 20.9303 3.13959V14.721H17.7908C17.2129 14.721 16.7443 15.1896 16.7443 15.7676V19.9536C16.7443 20.5316 17.2129 21.0002 17.7908 21.0002H20.9303V28.3955ZM27.2095 22.0671V19.9536C27.2095 19.3756 26.7409 18.907 26.1629 18.907H18.8374V16.814H26.1629C26.7409 16.814 27.2095 16.3454 27.2095 15.7674V13.654L32.9117 17.8606L27.2095 22.0671Z" fill="#474747"/>
<path d="M9.41567 14.7188C8.8377 14.7188 8.36914 15.1873 8.36914 15.7653V19.9513C8.36914 20.5293 8.8377 20.9979 9.41567 20.9979C9.99364 20.9979 10.4622 20.5293 10.4622 19.9513V15.7653C10.4621 15.1873 9.99357 14.7188 9.41567 14.7188Z" fill="#474747"/>
</svg>
