<svg xmlns="http://www.w3.org/2000/svg" width="35" height="35" fill="none"><rect width="35" height="35" fill="#0070E0" rx="17.5"/><path fill="#fff" d="m26.954 22.178-2.79-2.791c-.998-.997-2.692-.598-3.091.698-.299.897-1.296 1.395-2.193 1.196-1.994-.499-4.685-3.09-5.183-5.183-.3-.898.299-1.894 1.196-2.193 1.296-.4 1.694-2.094.698-3.09L12.8 8.022c-.798-.697-1.994-.697-2.692 0L8.214 9.917c-1.894 1.994.2 7.277 4.885 11.962 4.684 4.685 9.968 6.878 11.961 4.884l1.894-1.894c.698-.797.698-1.993 0-2.691Z"/></svg>
