<svg width="42" height="43" viewBox="0 0 42 43" fill="none" xmlns="http://www.w3.org/2000/svg">
<path d="M30.8438 39.875H11.1562C8.89441 39.8724 6.72594 38.9728 5.12657 37.3734C3.52721 35.7741 2.62756 33.6056 2.625 31.3438V11.6562C2.62756 9.39441 3.52721 7.22594 5.12657 5.62657C6.72594 4.02721 8.89441 3.12756 11.1562 3.125H30.8438C33.1056 3.12756 35.2741 4.02721 36.8734 5.62657C38.4728 7.22594 39.3724 9.39441 39.375 11.6562V31.3438C39.3724 33.6056 38.4728 35.7741 36.8734 37.3734C35.2741 38.9728 33.1056 39.8724 30.8438 39.875ZM11.1562 4.4375C9.24238 4.43966 7.40752 5.2009 6.05421 6.55421C4.7009 7.90752 3.93966 9.74238 3.9375 11.6562V31.3438C3.93966 33.2576 4.7009 35.0925 6.05421 36.4458C7.40752 37.7991 9.24238 38.5603 11.1562 38.5625H30.8438C32.7576 38.5603 34.5925 37.7991 35.9458 36.4458C37.2991 35.0925 38.0603 33.2576 38.0625 31.3438V11.6562C38.0603 9.74238 37.2991 7.90752 35.9458 6.55421C34.5925 5.2009 32.7576 4.43966 30.8438 4.4375H11.1562Z" fill="#0282FF"/>
<path d="M21.0006 20.3659C19.4547 20.3641 17.9726 19.7492 16.8795 18.6561C15.7864 17.5629 15.1716 16.0808 15.1699 14.5349C15.4757 6.80497 26.5266 6.80713 26.8312 14.535C26.8295 16.0809 26.2147 17.563 25.1216 18.6561C24.0285 19.7493 22.5464 20.3641 21.0006 20.3659ZM21.0006 10.0165C19.8027 10.0179 18.6543 10.4945 17.8072 11.3415C16.9602 12.1886 16.4838 13.337 16.4824 14.5349C16.6948 20.5151 25.3072 20.5136 25.5187 14.5349C25.5173 13.337 25.0408 12.1886 24.1938 11.3415C23.3468 10.4945 22.1984 10.0179 21.0006 10.0165Z" fill="#0282FF"/>
<path d="M29.8255 34.295H12.1734C11.843 34.2951 11.5166 34.2227 11.2173 34.0828C10.918 33.943 10.653 33.7391 10.4411 33.4855C10.2312 33.2361 10.0785 32.9436 9.99402 32.6288C9.90952 32.3139 9.89524 31.9842 9.95217 31.6632C10.4162 29.0709 11.7771 26.7244 13.7967 25.0342C15.8163 23.3441 18.366 22.418 20.9995 22.418C23.633 22.418 26.1826 23.3441 28.2022 25.0342C30.2218 26.7244 31.5827 29.0709 32.0468 31.6632C32.1 31.9862 32.0825 32.3169 31.9955 32.6325C31.9085 32.9481 31.7541 33.2411 31.543 33.4913C31.3318 33.7414 31.0689 33.9428 30.7724 34.0816C30.4759 34.2203 30.1529 34.2931 29.8255 34.295ZM20.9995 23.7305C18.6732 23.7265 16.4199 24.5426 14.6357 26.0354C12.8515 27.5282 11.6507 29.6021 11.2442 31.8927C11.223 32.0271 11.2312 32.1644 11.2682 32.2953C11.3052 32.4263 11.37 32.5477 11.4583 32.6512C11.5465 32.7547 11.6562 32.8379 11.7796 32.8951C11.903 32.9523 12.0374 32.9821 12.1734 32.9825H29.8255C29.9616 32.9821 30.0959 32.9523 30.2193 32.8951C30.3428 32.8379 30.4524 32.7547 30.5407 32.6512C30.6289 32.5476 30.6938 32.4263 30.7307 32.2953C30.7677 32.1644 30.7759 32.027 30.7548 31.8926C30.3483 29.6021 29.1474 27.5282 27.3632 26.0354C25.579 24.5426 23.3258 23.7265 20.9995 23.7305Z" fill="#0282FF"/>
</svg>
